HIERARCHY
ROOT Hips
{
	OFFSET 0.000000 0.000000 0.000000 
	CHANNELS 6 Xposition Yposition Zposition Zrotation Yrotation Xrotation
	JOINT LeftUpLeg
	{
		OFFSET 1.363060 -1.794630 0.839290 
		CHANNELS 3 Zrotation Yrotation Xrotation
		JOINT LeftLeg
		{
			OFFSET 2.448110 -6.726130 0.000000 
			CHANNELS 3 Zrotation Yrotation Xrotation
			JOINT LeftFoot
			{
				OFFSET 2.562200 -7.039590 0.000000 
				CHANNELS 3 Zrotation Yrotation Xrotation
				JOINT LeftToeBase
				{
					OFFSET 0.157640 -0.433110 2.322550 
					CHANNELS 3 Zrotation Yrotation Xrotation
					End Site
					{
						OFFSET 0.000000 0.000000 0.000000 
					}
				}
			}
		}
	}
	JOINT RightUpLeg
	{
		OFFSET -1.305520 -1.794630 0.839290 
		CHANNELS 3 Zrotation Yrotation Xrotation
		JOINT RightLeg
		{
			OFFSET -2.542530 -6.985550 0.000000 
			CHANNELS 3 Zrotation Yrotation Xrotation
			JOINT RightFoot
			{
				OFFSET -2.568260 -7.056230 0.000000 
				CHANNELS 3 Zrotation Yrotation Xrotation
				JOINT RightToeBase
				{
					OFFSET -0.164730 -0.452590 2.363150 
					CHANNELS 3 Zrotation Yrotation Xrotation
					End Site
					{
						OFFSET 0.000000 0.000000 0.000000 
					}
				}
			}
		}
	}
	JOINT Spine
	{
		OFFSET 0.028270 2.035590 -0.193380 
		CHANNELS 3 Zrotation Yrotation Xrotation
		JOINT Spine1
		{
			OFFSET 0.056720 2.048850 -0.042750 
			CHANNELS 3 Zrotation Yrotation Xrotation
			JOINT Neck1
			{
				OFFSET -0.054170 1.746240 0.172020 
				CHANNELS 3 Zrotation Yrotation Xrotation
				JOINT Head
				{
					OFFSET 0.104070 1.761360 -0.123970 
					CHANNELS 3 Zrotation Yrotation Xrotation
					End Site
					{
						OFFSET 0.000000 0.000000 0.000000 
					}
				}
			}
			JOINT LeftArm
			{
				OFFSET 3.362410 1.200890 -0.311210 
				CHANNELS 3 Zrotation Yrotation Xrotation
				JOINT LeftForeArm
				{
					OFFSET 4.983000 -0.000000 -0.000000 
					CHANNELS 3 Zrotation Yrotation Xrotation
					JOINT LeftHand
					{
						OFFSET 3.483560 -0.000000 -0.000000 
						CHANNELS 3 Zrotation Yrotation Xrotation
						JOINT LeftHandIndex1
						{
							OFFSET 0.715260 -0.000000 -0.000000 
							CHANNELS 3 Zrotation Yrotation Xrotation
							End Site
							{
								OFFSET 0.000000 0.000000 0.000000 
							}
						}
					}
				}
			}
			JOINT RightArm
			{
				OFFSET -3.136600 1.374050 -0.404650 
				CHANNELS 3 Zrotation Yrotation Xrotation
				JOINT RightForeArm
				{
					OFFSET -5.241900 -0.000000 -0.000000 
					CHANNELS 3 Zrotation Yrotation Xrotation
					JOINT RightHand
					{
						OFFSET -3.444170 -0.000000 -0.000000 
						CHANNELS 3 Zrotation Yrotation Xrotation
						JOINT RightHandIndex1
						{
							OFFSET -0.622530 -0.000000 -0.000000 
							CHANNELS 3 Zrotation Yrotation Xrotation
							End Site
							{
								OFFSET 0.000000 0.000000 0.000000 
							}
						}
					}
				}
			}
		}
	}
}
MOTION
Frames: 10
Frame Time: 0.041667
-5.212898 17.115641 36.097742 -131.970152 -77.068229 137.584850 -0.509352 -7.295304 -12.272081 0.506883 10.536053 27.582997 -0.715584 5.330559 0.237931 2.275100 -9.416900 -27.108400 35.560887 -1.650665 -9.747041 1.008317 -9.197316 20.398559 -2.912677 9.709956 0.728797 -0.194900 2.842700 -7.841000 2.369238 1.921475 -2.513135 2.112754 1.188503 -5.795222 23.383196 -35.952826 -0.326794 32.618400 -20.529100 8.069800 -79.999448 9.329563 45.924915 18.060389 -24.683167 -4.781880 -0.086095 0.312235 -38.940264 -7.125000 0.000000 0.000000 74.462526 -3.362565 41.432490 -11.693812 20.972859 -2.635635 -0.324756 0.509428 20.010814 7.125000 0.000000 0.000000 
-5.211491 17.113151 36.088863 -131.523261 -77.078670 137.123531 -0.440806 -7.567435 -12.214492 0.524976 10.569704 27.669900 -0.786531 5.537270 0.158132 2.266100 -9.399600 -27.053500 35.655366 -1.798353 -9.789736 1.007037 -9.197793 20.396909 -2.927539 9.808914 0.731380 -0.191100 2.815600 -7.765900 2.392190 1.895190 -2.516217 2.154577 1.184245 -5.786308 23.416680 -36.064875 -0.222259 32.555600 -20.670600 8.246900 -80.057435 9.329929 45.849025 18.079435 -24.705614 -4.785337 -0.063583 0.304896 -39.140144 -7.125000 0.000000 0.000000 74.468055 -3.365421 41.167306 -11.656256 20.929351 -2.627420 -0.327258 0.516991 19.952842 7.125000 0.000000 0.000000 
-5.210408 17.110877 36.080091 -131.118589 -77.090526 136.710395 -0.380827 -7.831382 -12.158999 0.541016 10.600828 27.748191 -0.859964 5.750872 0.078047 2.256800 -9.381700 -26.996700 35.742596 -1.929456 -9.830460 1.006033 -9.197951 20.393949 -2.939301 9.887468 0.726461 -0.189700 2.805200 -7.736900 2.418447 1.860102 -2.520803 2.215919 1.177872 -5.779488 23.446390 -36.166084 -0.117173 32.485600 -20.802300 8.416300 -80.127702 9.341332 45.774634 18.110827 -24.742547 -4.795453 -0.046387 0.297553 -39.334574 -7.125000 0.000000 0.000000 74.455173 -3.375420 40.963163 -11.634269 20.904807 -2.623996 -0.329779 0.525497 19.877381 7.125000 0.000000 0.000000 
-5.209433 17.109144 36.071753 -130.758865 -77.103712 136.346468 -0.330295 -8.086892 -12.103738 0.554700 10.629183 27.816411 -0.935411 5.970769 -0.002422 2.246600 -9.361800 -26.933800 35.819924 -2.035107 -9.864568 1.005624 -9.197479 20.389277 -2.947446 9.942991 0.723316 -0.188000 2.792500 -7.701400 2.445387 1.825087 -2.526442 2.285307 1.172137 -5.776336 23.482462 -36.272987 -0.030033 32.413600 -20.926600 8.568400 -80.200372 9.366397 45.752520 18.162339 -24.802534 -4.815599 -0.039407 0.290338 -39.506015 -7.125000 0.000000 0.000000 74.424524 -3.392094 40.813071 -11.625883 20.897093 -2.625036 -0.332674 0.534470 19.785456 7.125000 0.000000 0.000000 
-5.208675 17.107520 36.063848 -130.421899 -77.112631 136.009481 -0.280807 -8.332851 -12.048959 0.566524 10.653682 27.874315 -1.010245 6.188404 -0.081011 2.234700 -9.338700 -26.860500 35.896369 -2.128868 -9.898306 1.005580 -9.196685 20.383138 -2.954032 9.990122 0.722510 -0.186200 2.779400 -7.665300 2.472791 1.794161 -2.533012 2.357658 1.168193 -5.777469 23.524516 -36.392358 0.032763 32.350100 -21.046400 8.702500 -80.277834 9.404851 45.789947 18.235619 -24.886390 -4.846025 -0.042342 0.282853 -39.654917 -7.125000 0.000000 0.000000 74.370333 -3.415949 40.713558 -11.629487 20.905292 -2.630190 -0.335722 0.543436 19.672918 7.125000 0.000000 0.000000 
-5.208134 17.106220 36.056268 -130.119466 -77.119329 135.709584 -0.235844 -8.565326 -11.993672 0.576074 10.674262 27.920748 -1.085154 6.406424 -0.157828 2.224500 -9.318800 -26.797800 35.967000 -2.200127 -9.925934 1.006235 -9.195651 20.376257 -2.958764 10.025591 0.728888 -0.182400 2.750600 -7.585200 2.497278 1.775235 -2.539957 2.422217 1.168685 -5.783775 23.577135 -36.530430 0.062149 32.295000 -21.160900 8.808500 -80.344438 9.453554 45.878074 18.312584 -24.975329 -4.879084 -0.048390 0.277168 -39.772850 -7.125000 0.000000 0.000000 74.306001 -3.454512 40.672292 -11.648069 20.933048 -2.640009 -0.338350 0.552001 19.516316 7.125000 0.000000 0.000000 
-5.207809 17.105137 36.048904 -129.858559 -77.123561 135.454643 -0.194543 -8.781999 -11.938500 0.583415 10.690534 27.955690 -1.156063 6.612214 -0.232022 2.211700 -9.293700 -26.718400 36.032301 -2.253806 -9.949953 1.006891 -9.195177 20.370534 -2.962014 10.051601 0.734481 -0.178700 2.723000 -7.508600 2.517304 1.772259 -2.547714 2.475826 1.174858 -5.797582 23.637231 -36.688356 0.059541 32.255200 -21.273200 8.889200 -80.395584 9.509982 45.982466 18.378213 -25.052777 -4.907382 -0.049364 0.272879 -39.844335 -7.125000 0.000000 0.000000 74.239849 -3.511470 40.676213 -11.679178 20.977537 -2.653714 -0.340526 0.559934 19.325228 7.125000 0.000000 0.000000 
-5.207484 17.104271 36.041866 -129.632178 -77.126619 135.236715 -0.156129 -8.984062 -11.883678 0.588199 10.702159 27.977615 -1.224384 6.810704 -0.300664 2.201400 -9.273600 -26.655100 36.091909 -2.286398 -9.970871 1.007600 -9.195961 20.367938 -2.962990 10.063107 0.740936 -0.174600 2.691600 -7.421300 2.532970 1.783160 -2.555799 2.518041 1.186149 -5.816345 23.702643 -36.861270 0.030266 32.221800 -21.380600 8.947200 -80.436733 9.569007 46.089315 18.424324 -25.109270 -4.927364 -0.044213 0.271301 -39.851123 -7.125000 0.000000 0.000000 74.191305 -3.580002 40.669633 -11.713244 21.026114 -2.668564 -0.342516 0.566460 19.147593 7.125000 0.000000 0.000000 
-5.207159 17.103405 36.035043 -129.447317 -77.129599 135.061875 -0.122355 -9.170052 -11.829918 0.590488 10.709571 27.987577 -1.289686 7.000250 -0.365276 2.193200 -9.257500 -26.604200 36.144671 -2.295172 -9.987982 1.008174 -9.198529 20.369627 -2.961248 10.056784 0.745020 -0.170900 2.663000 -7.341900 2.544238 1.803066 -2.563918 2.548467 1.200022 -5.837611 23.772778 -37.041680 -0.021473 32.195900 -21.480900 8.983300 -80.461122 9.630886 46.192806 18.457572 -25.152391 -4.941588 -0.033682 0.270575 -39.804564 -7.125000 0.000000 0.000000 74.153507 -3.653110 40.692310 -11.752585 21.080342 -2.684151 -0.343168 0.571531 18.963019 7.125000 0.000000 0.000000 
-5.206834 17.102647 36.028546 -129.299210 -77.134262 134.927295 -0.093438 -9.340125 -11.779108 0.590091 10.712665 27.985333 -1.350071 7.175341 -0.423127 2.185200 -9.241600 -26.553900 36.189612 -2.272982 -9.999397 1.008534 -9.203098 20.376278 -2.955201 10.021993 0.743683 -0.167900 2.640000 -7.278000 2.554547 1.817748 -2.571828 2.577304 1.210901 -5.859268 23.840601 -37.211557 -0.081977 32.178500 -21.569900 9.000300 -80.481294 9.695684 46.261305 18.478046 -25.182693 -4.951302 -0.019248 0.271783 -39.716508 -7.125000 0.000000 0.000000 74.112926 -3.717722 40.766146 -11.794572 21.136445 -2.699612 -0.343136 0.575590 18.771771 7.125000 0.000000 0.000000 
